<svg width="42" height="42" viewBox="0 0 42 42" fill="none" xmlns="http://www.w3.org/2000/svg">
<path d="M34.5035 18.3906H31.793V21.1011H34.5035V18.3906Z" fill="black"/>
<path d="M37.2178 18.3906H34.5068V21.1011H37.2178V18.3906Z" fill="black"/>
<path d="M20.9484 18.3911H18.2373V21.1016H20.9484V18.3911Z" fill="black"/>
<path d="M18.2406 18.3906H15.5303V21.1011H18.2406V18.3906Z" fill="black"/>
<path d="M34.5035 15.6802H31.793V18.3905H34.5035V15.6802Z" fill="black"/>
<path d="M37.2178 15.6802H34.5068V18.3905H37.2178V15.6802Z" fill="black"/>
<path d="M20.9484 15.6802H18.2373V18.3905H20.9484V15.6802Z" fill="black"/>
<path d="M18.2406 15.6802H15.5303V18.3905H18.2406V15.6802Z" fill="black"/>
<path d="M37.2177 15.6805V12.97H34.5068V10.2583H29.0858V12.97H26.3747V21.1016H29.0858V23.8121H34.5068V21.1016H31.7963V15.6807H37.2177V15.6805ZM18.2417 10.2583H12.8205V12.97H10.1094V21.1016H12.8205V23.8121H18.2419V21.1016H15.5316V15.6807H20.953V12.9702H18.2419L18.2417 10.2583Z" fill="white"/>
<path d="M37.2155 18.391V21.1015H34.5046V23.812H29.0836V21.1015H26.3724V12.9699H29.0836V10.2582H34.5046V7.54772H31.7941V4.8372H26.3724V2.12549H15.5292V4.8372H10.107V7.54772H7.39624V10.2582H4.68572V18.391H1.97461V40.0775H4.68572V37.367H7.39624V34.6553H10.107V37.367H12.8181V40.0775H18.2395V34.6553H23.6613V40.0775H29.0836V37.367H31.7941V34.6553H34.5046V37.367H37.2155V40.0775H39.9264V18.391H37.2155ZM20.9506 21.1015H18.2395V23.812H12.8183V21.1015H10.1072V12.9699H12.8183V10.2582H18.2397V12.9699H20.9508L20.9506 21.1015ZM37.2155 12.9699V10.2582H34.5046V12.9699H37.2155Z" fill="#F7BAD5"/>
</svg>
