<svg width="42" height="42" viewBox="0 0 42 42" fill="none" xmlns="http://www.w3.org/2000/svg">
<path d="M7.44395 18.2881H10.1553V20.9986H7.44395V18.2881Z" fill="black"/>
<path d="M4.73675 18.2881H7.44727V20.9986H4.73675V18.2881Z" fill="black"/>
<path d="M21.0012 18.2881H23.7119V20.9986H21.0012V18.2881Z" fill="black"/>
<path d="M23.7127 18.2881H26.4238V20.9986H23.7127V18.2881Z" fill="black"/>
<path d="M7.44395 15.5771H10.1553V18.2877H7.44395V15.5771Z" fill="black"/>
<path d="M4.73675 15.5771H7.44727V18.2877H4.73675V15.5771Z" fill="black"/>
<path d="M21.0012 15.5771H23.7119V18.2877H21.0012V15.5771Z" fill="black"/>
<path d="M23.7127 15.5771H26.4238V18.2877H23.7127V15.5771Z" fill="black"/>
<path d="M4.73579 15.5777V12.867H7.44632V10.1553H12.8681V12.867H15.5791V20.9987H12.8681V23.7104H7.44632V20.9987H10.1576V15.5777H4.73579ZM23.7114 10.1555H29.1328V12.8672H31.8438V20.9989H29.1328V23.7104H23.7112V20.9987H26.4223V15.5777H21.0005V12.867H23.7112V10.1555H23.7114Z" fill="white"/>
<path d="M4.73488 18.288V20.9985H7.4454V23.7102H12.8672V20.9985H15.5781V12.8668H12.8672V10.1551H7.4454V7.44476H10.1567V4.73443H15.5781V2.02393H26.4216V4.73443H31.843V7.44495H34.5536V10.1553H37.2645V18.2882H39.9756V39.9745H37.2645V37.264H34.5536V34.5523H31.843V37.264H29.1321V39.9745H23.7105V34.5523H18.2887V39.9745H12.8672V37.264H10.1567V34.5523H7.4454V37.264H4.73488V39.9745H2.02378V18.288H4.73488ZM20.9998 20.9985H23.7105V23.7102H29.1319V20.9985H31.8428V12.8668H29.1319V10.1551H23.7103V12.8668H20.9996V20.9985H20.9998ZM4.73488 12.8668V10.1551H7.4454V12.8668H4.73488Z" fill="#ED2024"/>
</svg>
